# Blender 4.3.2
# www.blender.org
mtllib myladders_ropebox.mtl
o Cylinder
v -0.001513 -0.495352 -0.070000
v -0.001513 0.010731 -0.070000
v 0.012143 -0.495352 -0.068655
v 0.012143 0.010731 -0.068655
v 0.025275 -0.495352 -0.064672
v 0.025275 0.010731 -0.064672
v 0.037377 -0.495352 -0.058203
v 0.037377 0.010731 -0.058203
v 0.047984 -0.495352 -0.049497
v 0.047984 0.010731 -0.049497
v 0.056690 -0.495352 -0.038890
v 0.056690 0.010731 -0.038890
v 0.063158 -0.495352 -0.026788
v 0.063158 0.010731 -0.026788
v 0.067142 -0.495352 -0.013656
v 0.067142 0.010731 -0.013656
v 0.068487 -0.495352 -0.000000
v 0.068487 0.010731 -0.000000
v 0.067142 -0.495352 0.013656
v 0.067142 0.010731 0.013656
v 0.063158 -0.495352 0.026788
v 0.063158 0.010731 0.026788
v 0.056690 -0.495352 0.038890
v 0.056690 0.010731 0.038890
v 0.047984 -0.495352 0.049497
v 0.047984 0.010731 0.049497
v 0.037377 -0.495352 0.058203
v 0.037377 0.010731 0.058203
v 0.025275 -0.495352 0.064672
v 0.025275 0.010731 0.064672
v 0.012143 -0.495352 0.068655
v 0.012143 0.010731 0.068655
v -0.001513 -0.495352 0.070000
v -0.001513 0.010731 0.070000
v -0.015170 -0.495352 0.068655
v -0.015170 0.010731 0.068655
v -0.028301 -0.495352 0.064672
v -0.028301 0.010731 0.064672
v -0.040403 -0.495352 0.058203
v -0.040403 0.010731 0.058203
v -0.051011 -0.495352 0.049497
v -0.051011 0.010731 0.049497
v -0.059716 -0.495352 0.038890
v -0.059716 0.010731 0.038890
v -0.066185 -0.495352 0.026788
v -0.066185 0.010731 0.026788
v -0.070168 -0.495352 0.013656
v -0.070168 0.010731 0.013656
v -0.071513 -0.495352 -0.000000
v -0.071513 0.010731 -0.000000
v -0.070168 -0.495352 -0.013656
v -0.070168 0.010731 -0.013656
v -0.066185 -0.495352 -0.026788
v -0.066185 0.010731 -0.026788
v -0.059716 -0.495352 -0.038890
v -0.059716 0.010731 -0.038890
v -0.051011 -0.495352 -0.049497
v -0.051011 0.010731 -0.049497
v -0.040403 -0.495352 -0.058203
v -0.040403 0.010731 -0.058203
v -0.028301 -0.495352 -0.064672
v -0.028301 0.010731 -0.064672
v -0.015170 -0.495352 -0.068655
v -0.015170 0.010731 -0.068655
v -0.245352 -0.177356 0.352254
v -0.245352 0.496338 0.352254
v -0.245352 -0.177356 -0.342958
v -0.245352 0.496338 -0.342958
v 0.254648 -0.177356 0.352254
v 0.254648 0.496338 0.352254
v 0.254648 -0.177356 -0.342958
v 0.254648 0.496338 -0.342958
vn 0.0980 -0.0000 -0.9952
vn 0.2903 -0.0000 -0.9569
vn 0.4714 -0.0000 -0.8819
vn 0.6344 -0.0000 -0.7730
vn 0.7730 -0.0000 -0.6344
vn 0.8819 -0.0000 -0.4714
vn 0.9569 -0.0000 -0.2903
vn 0.9952 -0.0000 -0.0980
vn 0.9952 -0.0000 0.0980
vn 0.9569 -0.0000 0.2903
vn 0.8819 -0.0000 0.4714
vn 0.7730 -0.0000 0.6344
vn 0.6344 -0.0000 0.7730
vn 0.4714 -0.0000 0.8819
vn 0.2903 -0.0000 0.9569
vn 0.0980 -0.0000 0.9952
vn -0.0980 -0.0000 0.9952
vn -0.2903 -0.0000 0.9569
vn -0.4714 -0.0000 0.8819
vn -0.6344 -0.0000 0.7730
vn -0.7730 -0.0000 0.6344
vn -0.8819 -0.0000 0.4714
vn -0.9569 -0.0000 0.2903
vn -0.9952 -0.0000 0.0980
vn -0.9952 -0.0000 -0.0980
vn -0.9569 -0.0000 -0.2903
vn -0.8819 -0.0000 -0.4714
vn -0.7730 -0.0000 -0.6344
vn -0.6344 -0.0000 -0.7730
vn -0.4714 -0.0000 -0.8819
vn -0.0000 1.0000 -0.0000
vn -0.2903 -0.0000 -0.9569
vn -0.0980 -0.0000 -0.9952
vn -0.0000 -1.0000 -0.0000
vn -1.0000 -0.0000 -0.0000
vn -0.0000 -0.0000 -1.0000
vn 1.0000 -0.0000 -0.0000
vn -0.0000 -0.0000 1.0000
vt 0.752683 1.040408
vt 0.656082 1.040408
vt 0.656082 1.021789
vt 0.752683 1.021789
vt 0.656082 1.003885
vt 0.752683 1.003885
vt 0.656082 0.987385
vt 0.752683 0.987385
vt 0.656082 0.972922
vt 0.752683 0.972922
vt 0.849284 1.107894
vt 0.752683 1.107894
vt 0.752683 1.093432
vt 0.849284 1.093432
vt 0.752683 1.076931
vt 0.849284 1.076931
vt 0.752683 1.059028
vt 0.849284 1.059028
vt 0.849284 1.040408
vt 0.849284 1.021789
vt 0.849284 1.003885
vt 0.849284 0.987385
vt 0.849284 0.972922
vt 0.945885 1.107894
vt 0.945885 1.093432
vt 0.945885 1.076931
vt 0.945885 1.059028
vt 0.945885 1.040408
vt 0.945885 1.021789
vt 0.945885 1.003885
vt 0.945885 0.987385
vt 0.945885 0.972922
vt 1.042486 1.107894
vt 0.945885 1.107894
vt 0.945885 1.093432
vt 1.042486 1.093432
vt 0.945885 1.076931
vt 1.042486 1.076931
vt 0.945885 1.059028
vt 1.042486 1.059028
vt 0.945885 1.040408
vt 1.042486 1.040408
vt 0.945885 1.021789
vt 1.042486 1.021789
vt 0.945885 1.003885
vt 1.042486 1.003885
vt 0.945885 0.987385
vt 1.042486 0.987385
vt 0.945885 0.972922
vt 1.042486 0.972922
vt 0.656082 1.107894
vt 0.656082 1.093432
vt 0.656082 1.076931
vt 0.310595 1.141678
vt 0.297366 1.128449
vt 0.286971 1.112892
vt 0.279811 1.095607
vt 0.276161 1.077257
vt 0.276161 1.058548
vt 0.279811 1.040198
vt 0.286971 1.022912
vt 0.297366 1.007356
vt 0.310595 0.994126
vt 0.326152 0.983732
vt 0.343437 0.976572
vt 0.361787 0.972922
vt 0.380496 0.972922
vt 0.398846 0.976572
vt 0.416132 0.983732
vt 0.431688 0.994126
vt 0.444918 1.007356
vt 0.455312 1.022912
vt 0.462472 1.040198
vt 0.466122 1.058548
vt 0.466122 1.077257
vt 0.462472 1.095607
vt 0.455312 1.112892
vt 0.444918 1.128449
vt 0.431688 1.141678
vt 0.416132 1.152073
vt 0.398846 1.159232
vt 0.380496 1.162883
vt 0.361787 1.162883
vt 0.343437 1.159232
vt 0.326152 1.152073
vt 0.656082 1.059028
vt 0.487326 1.128449
vt 0.476932 1.112892
vt 0.469772 1.095607
vt 0.469772 1.040198
vt 0.476932 1.022912
vt 0.487326 1.007356
vt 0.500556 0.994126
vt 0.516112 0.983732
vt 0.533397 0.976572
vt 0.551747 0.972922
vt 0.570457 0.972922
vt 0.588807 0.976572
vt 0.606092 0.983732
vt 0.621648 0.994126
vt 0.634878 1.007356
vt 0.645272 1.022912
vt 0.652432 1.040198
vt 0.656082 1.058547
vt 0.656082 1.077257
vt 0.652432 1.095607
vt 0.645272 1.112892
vt 0.634878 1.128449
vt 0.621648 1.141678
vt 0.606092 1.152073
vt 0.588807 1.159232
vt 0.570457 1.162883
vt 0.551747 1.162883
vt 0.533397 1.159232
vt 0.516112 1.152073
vt 0.500556 1.141678
vt 1.510993 0.972922
vt 1.382398 0.972922
vt 1.382398 0.025053
vt 1.510993 0.025053
vt 0.276161 1.654635
vt 0.147567 1.654635
vt 0.147567 0.972922
vt 0.276161 0.972922
vt 1.639587 0.972922
vt 1.510993 0.972922
vt 1.510993 0.025052
vt 1.639587 0.025052
vt 0.147567 1.654635
vt 0.018972 1.654635
vt 0.018972 0.972922
vt 0.147567 0.972922
vt 0.700685 0.972922
vt 0.018972 0.025052
vt 0.700685 0.025052
vt 1.382398 0.972922
vt 1.382398 0.025052
s 0
usemtl Material.001
f 1/1/1 2/2/1 4/3/1 3/4/1
f 3/4/2 4/3/2 6/5/2 5/6/2
f 5/6/3 6/5/3 8/7/3 7/8/3
f 7/8/4 8/7/4 10/9/4 9/10/4
f 9/11/5 10/12/5 12/13/5 11/14/5
f 11/14/6 12/13/6 14/15/6 13/16/6
f 13/16/7 14/15/7 16/17/7 15/18/7
f 15/18/8 16/17/8 18/1/8 17/19/8
f 17/19/9 18/1/9 20/4/9 19/20/9
f 19/20/10 20/4/10 22/6/10 21/21/10
f 21/21/11 22/6/11 24/8/11 23/22/11
f 23/22/12 24/8/12 26/10/12 25/23/12
f 25/24/13 26/11/13 28/14/13 27/25/13
f 27/25/14 28/14/14 30/16/14 29/26/14
f 29/26/15 30/16/15 32/18/15 31/27/15
f 31/27/16 32/18/16 34/19/16 33/28/16
f 33/28/17 34/19/17 36/20/17 35/29/17
f 35/29/18 36/20/18 38/21/18 37/30/18
f 37/30/19 38/21/19 40/22/19 39/31/19
f 39/31/20 40/22/20 42/23/20 41/32/20
f 41/33/21 42/34/21 44/35/21 43/36/21
f 43/36/22 44/35/22 46/37/22 45/38/22
f 45/38/23 46/37/23 48/39/23 47/40/23
f 47/40/24 48/39/24 50/41/24 49/42/24
f 49/42/25 50/41/25 52/43/25 51/44/25
f 51/44/26 52/43/26 54/45/26 53/46/26
f 53/46/27 54/45/27 56/47/27 55/48/27
f 55/48/28 56/47/28 58/49/28 57/50/28
f 57/12/29 58/51/29 60/52/29 59/13/29
f 59/13/30 60/52/30 62/53/30 61/15/30
f 4/54/31 2/55/31 64/56/31 62/57/31 60/58/31 58/59/31 56/60/31 54/61/31 52/62/31 50/63/31 48/64/31 46/65/31 44/66/31 42/67/31 40/68/31 38/69/31 36/70/31 34/71/31 32/72/31 30/73/31 28/74/31 26/75/31 24/76/31 22/77/31 20/78/31 18/79/31 16/80/31 14/81/31 12/82/31 10/83/31 8/84/31 6/85/31
f 61/15/32 62/53/32 64/86/32 63/17/32
f 63/17/33 64/86/33 2/2/33 1/1/33
f 1/87/34 3/88/34 5/89/34 7/75/34 9/74/34 11/90/34 13/91/34 15/92/34 17/93/34 19/94/34 21/95/34 23/96/34 25/97/34 27/98/34 29/99/34 31/100/34 33/101/34 35/102/34 37/103/34 39/104/34 41/105/34 43/106/34 45/107/34 47/108/34 49/109/34 51/110/34 53/111/34 55/112/34 57/113/34 59/114/34 61/115/34 63/116/34
f 65/117/35 66/118/35 68/119/35 67/120/35
f 67/121/36 68/122/36 72/123/36 71/124/36
f 71/125/37 72/126/37 70/127/37 69/128/37
f 69/129/38 70/130/38 66/131/38 65/132/38
f 67/133/34 71/131/34 69/134/34 65/135/34
f 72/136/31 68/133/31 66/135/31 70/137/31
