# Blender 4.3.2
# www.blender.org
mtllib myladders_ladder.mtl
o Cube.003
v 0.264648 0.260000 0.221842
v 0.264648 0.400000 0.221842
v 0.264648 0.260000 0.361842
v 0.264648 0.400000 0.361842
v -0.255352 0.260000 0.221842
v -0.255352 0.400000 0.221842
v -0.255352 0.260000 0.361842
v -0.255352 0.400000 0.361842
v -0.396579 -0.369416 0.498548
v -0.396579 -0.509416 0.498548
v -0.396580 -0.369416 0.358548
v -0.396580 -0.509416 0.358548
v -0.256579 -0.369416 0.498548
v -0.256579 -0.509416 0.498548
v -0.256579 -0.369416 0.358548
v -0.256579 -0.509416 0.358548
v -0.395352 0.490704 0.361842
v -0.395352 -0.509296 0.361842
v -0.395352 0.490704 0.221842
v -0.395352 -0.509296 0.221842
v -0.255352 0.490704 0.361842
v -0.255352 -0.509296 0.361842
v -0.255352 0.490704 0.221842
v -0.255352 -0.509296 0.221842
v -0.396579 0.490444 0.493900
v -0.396579 0.350444 0.493900
v -0.396580 0.490444 0.353900
v -0.396580 0.350444 0.353900
v -0.256579 0.490444 0.493900
v -0.256579 0.350444 0.493900
v -0.256579 0.490444 0.353900
v -0.256579 0.350444 0.353900
v 0.263420 -0.364768 0.498548
v 0.263420 -0.504768 0.498548
v 0.263420 -0.364768 0.358548
v 0.263420 -0.504768 0.358548
v 0.403420 -0.364768 0.498548
v 0.403420 -0.504768 0.498548
v 0.403420 -0.364768 0.358548
v 0.403420 -0.504768 0.358548
v 0.264648 0.495352 0.361842
v 0.264648 -0.504648 0.361842
v 0.264648 0.495352 0.221842
v 0.264648 -0.504648 0.221842
v 0.404648 0.495352 0.361842
v 0.404648 -0.504648 0.361842
v 0.404648 0.495352 0.221842
v 0.404648 -0.504648 0.221842
v 0.263420 0.495092 0.493900
v 0.263420 0.355092 0.493900
v 0.263420 0.495092 0.353900
v 0.263420 0.355092 0.353900
v 0.403420 0.495092 0.493900
v 0.403420 0.355092 0.493900
v 0.403420 0.495092 0.353900
v 0.403420 0.355092 0.353900
v 0.264648 -0.074648 0.221842
v 0.264648 0.065352 0.221842
v 0.264648 -0.074648 0.361842
v 0.264648 0.065352 0.361842
v -0.255352 -0.074648 0.221842
v -0.255352 0.065352 0.221842
v -0.255352 -0.074648 0.361842
v -0.255352 0.065352 0.361842
v 0.264648 -0.400000 0.221842
v 0.264648 -0.260000 0.221842
v 0.264648 -0.400000 0.361842
v 0.264648 -0.260000 0.361842
v -0.255352 -0.400000 0.221842
v -0.255352 -0.260000 0.221842
v -0.255352 -0.400000 0.361842
v -0.255352 -0.260000 0.361842
vn 1.0000 -0.0000 -0.0000
vn -0.0000 -0.0000 1.0000
vn -1.0000 -0.0000 -0.0000
vn -0.0000 -0.0000 -1.0000
vn -0.0000 -1.0000 -0.0000
vn -0.0000 1.0000 -0.0000
vt 0.841779 0.146089
vt 0.704235 0.146089
vt 0.704235 0.008545
vt 0.841779 0.008545
vt 0.841779 0.283634
vt 0.704235 0.283634
vt 0.841779 0.146089
vt 0.841779 0.421178
vt 0.704235 0.421178
vt 0.841779 0.558722
vt 0.704235 0.558722
vt 0.704235 0.421178
vt 0.841779 0.421178
vt 0.841779 0.696267
vt 0.704235 0.696267
vt 0.841779 0.833811
vt 0.704235 0.833811
vt 0.318052 1.128549
vt 0.281021 1.128549
vt 0.281021 0.991005
vt 0.318052 0.991005
vt 0.318052 1.128549
vt 0.355084 0.991005
vt 0.355084 1.128549
vt 0.979324 0.833811
vt 0.841779 0.833811
vt 0.979324 0.696267
vt 0.392115 1.128549
vt 0.355084 1.128549
vt 0.392115 0.991005
vt 0.979324 0.971356
vt 0.841779 0.971356
vt 0.392115 1.128549
vt 0.429146 0.991005
vt 0.429146 1.128549
vt 1.153899 0.833811
vt 1.116868 0.833811
vt 1.116868 0.696267
vt 1.153899 0.696267
vt 0.556110 0.991005
vt 0.556110 0.008545
vt 0.593141 0.008545
vt 0.593141 0.991005
vt 0.005932 0.991005
vt 0.005932 0.008545
vt 0.143477 0.008545
vt 0.143477 0.991005
vt 1.153899 0.971356
vt 1.116868 0.971356
vt 1.153899 0.833811
vt 0.143477 0.991005
vt 0.143477 0.008545
vt 0.281021 0.008545
vt 0.630172 0.008545
vt 0.630172 0.991005
vt 0.466177 1.128549
vt 0.429146 1.128549
vt 0.466177 0.991005
vt 0.466177 1.128549
vt 0.466177 0.991005
vt 0.503208 0.991005
vt 0.503208 1.128549
vt 0.704235 0.971356
vt 0.540240 1.128549
vt 0.503208 1.128549
vt 0.503208 0.991005
vt 0.540240 0.991005
vt 0.005932 1.128549
vt 0.005932 0.991005
vt 0.143477 0.991005
vt 0.143477 1.128549
vt 0.540240 1.128549
vt 0.540240 0.991005
vt 0.577271 0.991005
vt 0.577271 1.128549
vt 0.614302 1.128549
vt 0.577271 1.128549
vt 0.577271 0.991005
vt 0.614302 0.991005
vt 0.614302 1.128549
vt 0.651333 0.991005
vt 0.651333 1.128549
vt 0.841779 1.108900
vt 0.704235 1.108900
vt 0.841779 0.971356
vt 0.688364 1.128549
vt 0.651333 1.128549
vt 0.688364 0.991005
vt 0.979324 1.108900
vt 1.116868 0.146089
vt 1.116868 0.008545
vt 1.153899 0.008545
vt 1.153899 0.146089
vt 1.153899 1.108900
vt 1.116868 1.108900
vt 1.153899 0.971356
vt 0.630172 0.991005
vt 0.630172 0.008545
vt 0.667203 0.008545
vt 0.667203 0.991005
vt 0.418566 0.008545
vt 0.418566 0.991005
vt 1.190930 0.146089
vt 1.153899 0.146089
vt 1.153899 0.008545
vt 1.190930 0.008545
vt 0.667204 0.991005
vt 0.667204 0.008545
vt 0.704235 0.991005
vt 1.153899 0.283634
vt 1.116868 0.283634
vt 1.116868 0.421178
vt 1.116868 0.283634
vt 1.153899 0.283634
vt 1.153899 0.421178
vt 0.979324 0.146089
vt 0.979324 0.008545
vt 1.153899 0.558722
vt 1.116868 0.558722
vt 1.116868 0.421178
vt 1.153899 0.421178
vt 0.281021 0.991005
vt 0.281021 1.128549
vt 1.116868 0.558722
vt 1.153899 0.558722
vt 1.116868 0.146089
vt 1.116868 0.008545
vt 0.979324 0.283634
vt 0.979324 0.146089
vt 1.116868 0.146089
vt 0.979324 0.421178
vt 1.116868 0.283634
vt 0.979324 0.558722
vt 0.979324 0.421178
vt 0.979324 0.283634
vt 0.841779 0.283634
vt 0.841779 0.146089
vt 1.116868 0.696267
vt 0.979324 0.558722
vt 1.116868 0.833811
vt 0.979324 0.833811
vt 1.116868 0.971356
vt 1.116868 1.108900
vt 0.979324 1.108900
vt 0.979324 0.421178
s 0
usemtl Material.001
f 1/1/1 2/2/1 4/3/1 3/4/1
f 3/5/2 4/6/2 8/2/2 7/7/2
f 7/8/3 8/9/3 6/6/3 5/5/3
f 5/10/4 6/11/4 2/12/4 1/13/4
f 3/10/5 7/14/5 5/15/5 1/11/5
f 8/14/6 4/16/6 2/17/6 6/15/6
usemtl Material
f 9/18/6 13/19/6 15/20/6 11/21/6
f 12/22/4 11/21/4 15/23/4 16/24/4
f 16/25/1 15/26/1 13/14/1 14/27/1
f 14/28/5 10/29/5 12/23/5 16/30/5
f 10/31/3 9/32/3 11/26/3 12/25/3
f 14/33/2 13/30/2 9/34/2 10/35/2
f 17/36/6 21/37/6 23/38/6 19/39/6
f 20/40/4 19/41/4 23/42/4 24/43/4
f 24/44/1 23/45/1 21/46/1 22/47/1
f 22/48/5 18/49/5 20/37/5 24/50/5
f 18/51/3 17/52/3 19/53/3 20/20/3
f 22/43/2 21/42/2 17/54/2 18/55/2
f 25/56/6 29/57/6 31/34/6 27/58/6
f 28/59/4 27/60/4 31/61/4 32/62/4
f 32/32/1 31/63/1 29/17/1 30/16/1
f 30/64/5 26/65/5 28/66/5 32/67/5
f 26/68/3 25/69/3 27/70/3 28/71/3
f 30/72/2 29/73/2 25/74/2 26/75/2
f 33/76/6 37/77/6 39/78/6 35/79/6
f 36/80/4 35/79/4 39/81/4 40/82/4
f 40/83/1 39/84/1 37/63/1 38/85/1
f 38/86/5 34/87/5 36/81/5 40/88/5
f 34/89/3 33/83/3 35/32/3 36/31/3
f 38/90/2 37/91/2 33/92/2 34/93/2
f 41/94/6 45/95/6 47/49/6 43/96/6
f 44/97/4 43/98/4 47/99/4 48/100/4
f 48/20/1 47/53/1 45/101/1 46/102/1
f 46/103/5 42/104/5 44/105/5 48/106/5
f 42/102/3 41/101/3 43/41/3 44/40/3
f 46/107/2 45/108/2 41/3/2 42/109/2
f 49/110/6 53/111/6 55/90/6 51/93/6
f 52/112/4 51/113/4 55/114/4 56/115/4
f 56/116/1 55/1/1 53/4/1 54/117/1
f 54/118/5 50/119/5 52/120/5 56/121/5
f 50/71/3 49/70/3 51/122/3 52/123/3
f 54/38/2 53/124/2 49/125/2 50/39/2
usemtl Material.004
f 57/126/1 58/116/1 60/117/1 59/127/1
f 59/113/2 60/128/2 64/129/2 63/130/2
f 63/112/3 64/131/3 62/128/3 61/132/3
f 61/119/4 62/133/4 58/134/4 57/120/4
f 59/129/5 63/135/5 61/136/5 57/137/5
f 64/135/6 60/131/6 58/8/6 62/136/6
usemtl Material.002
f 65/138/1 66/27/1 68/139/1 67/119/1
f 67/140/2 68/141/2 72/27/2 71/138/2
f 71/142/3 72/31/3 70/141/3 69/140/3
f 69/143/4 70/144/4 66/31/4 65/142/4
f 67/145/5 71/139/5 69/10/5 65/13/5
f 72/139/6 68/27/6 66/14/6 70/10/6
